<svg width="271" height="256" viewBox="0 0 271 256" fill="none" xmlns="http://www.w3.org/2000/svg">
<path d="M95.03 43.6799L91.22 103.37L184.95 103.88L178.34 39.6199L95.03 43.6799Z" fill="black"/>
<path d="M263.85 243.98C255.53 253.39 241.16 254.28 231.75 245.97L161.29 183.73C151.88 175.41 150.99 161.04 159.3 151.63C167.62 142.22 181.99 141.33 191.4 149.64L261.86 211.88C271.28 220.19 272.17 234.57 263.85 243.98Z" fill="#E34D32"/>
<path d="M106.079 147.431C115.172 156.096 115.525 170.489 106.869 179.583L42.043 247.671C33.3776 256.764 18.9843 257.117 9.89101 248.461C0.798077 239.796 0.445011 225.403 9.10041 216.309L73.9267 148.221C82.5825 139.118 96.9857 138.765 106.079 147.431Z" fill="#E34D32"/>
<path d="M56.09 247.88C65.09 256.64 79.49 256.44 88.25 247.44L153.81 180.06C162.57 171.06 162.37 156.66 153.37 147.9C144.37 139.14 129.97 139.34 121.21 148.34L55.65 215.72C46.89 224.72 47.09 239.12 56.09 247.88Z" fill="#6A752C"/>
<path d="M121.27 64.65V133.45C121.27 136.85 124.03 139.61 127.43 139.61H149.12C152.52 139.61 155.28 136.85 155.28 133.45V64.65C155.28 61.25 152.52 58.49 149.12 58.49H127.43C124.03 58.49 121.27 61.25 121.27 64.65Z" fill="#A97C50"/>
<path d="M103.88 147.74H172.68C176.08 147.74 178.84 144.98 178.84 141.58V119.89C178.84 116.49 176.08 113.73 172.68 113.73H103.88C100.48 113.73 97.72 116.49 97.72 119.89V141.58C97.72 144.98 100.48 147.74 103.88 147.74Z" fill="#E34D32"/>
<path d="M133.39 105.82H140.57C159.94 105.82 175.65 90.12 175.65 70.74V49.02C175.65 29.65 159.95 13.9399 140.57 13.9399H133.39C114.02 13.9399 98.31 29.64 98.31 49.02V70.74C98.31 90.11 114.01 105.82 133.39 105.82Z" fill="#A97C50"/>
<path d="M137.69 259.44H218.11C231.5 259.44 242.35 248.59 242.35 235.2V185.29C242.35 160.41 222.18 140.24 197.3 140.24H158.5C133.62 140.24 113.45 160.41 113.45 185.29V235.2C113.44 248.59 124.3 259.44 137.69 259.44Z" fill="#9AA63E"/>
<path d="M131.26 241.59C130.26 229.07 139.59 218.11 152.11 217.11L245.82 209.61C258.34 208.61 269.3 217.94 270.3 230.46C271.3 242.98 261.97 253.94 249.45 254.94L155.74 262.44C143.22 263.45 132.26 254.11 131.26 241.59Z" fill="#A97C50"/>
<path d="M2.89981 234.029C3.29931 221.469 13.9942 211.648 26.7986 212.095L122.639 215.427C135.443 215.874 145.5 226.41 145.101 238.97C144.701 251.53 134.006 261.351 121.202 260.904L25.3617 257.572C12.5663 257.136 2.50032 246.589 2.89981 234.029Z" fill="#A97C50"/>
<path d="M182.91 47.24C179.11 20.33 161.77 0 140.93 0H132.17C111.33 0 93.99 20.33 90.19 47.24H182.91Z" fill="black"/>
<path d="M148.88 50.2898L144.31 22.0898L142.78 50.2898H148.88Z" fill="#A97C50"/>
<path d="M236.38 266.17H37.03C29.66 266.17 23.69 260.2 23.69 252.83V136.94C23.69 129.57 29.66 123.6 37.03 123.6H236.38C243.75 123.6 249.72 129.57 249.72 136.94V252.83C249.72 260.2 243.75 266.17 236.38 266.17Z" fill="#575857"/>
<path d="M137.13 245.76C165.81 245.76 189.06 222.51 189.06 193.83C189.06 165.15 165.81 141.9 137.13 141.9C108.45 141.9 85.2 165.15 85.2 193.83C85.2 222.51 108.45 245.76 137.13 245.76Z" fill="#3E3E3E"/>
<path d="M136.82 160.47C136.88 160.47 136.94 160.46 137 160.46C140.65 160.45 143.54 163.32 143.56 166.97C143.58 170.64 140.62 173.61 137 173.58C136.94 173.58 136.88 173.57 136.82 173.57C133.27 173.45 130.47 170.57 130.47 167.01C130.48 163.41 133.26 160.57 136.82 160.47ZM163.15 180.29C157.74 181.54 152.32 182.75 146.9 183.97C145.49 184.29 145.18 184.68 145.16 186.13C145.08 196.36 147.29 206.16 150.71 215.74C151.31 217.42 151.89 219.11 152.48 220.8C153.27 223.07 152.31 225.25 150.17 226.01C147.97 226.8 145.71 225.75 144.86 223.5C142.36 216.9 139.88 210.29 137.39 203.69C137.29 203.44 137.18 203.19 137 202.76C136.93 202.94 136.87 203.11 136.8 203.28C136.38 204.38 136.01 205.36 135.64 206.33C133.47 212.08 131.31 217.84 129.14 223.59C128.49 225.32 127.02 226.28 125.19 226.24C123.47 226.21 122.07 225.2 121.5 223.59C121.16 222.61 121.28 221.65 121.59 220.68C123.25 215.5 125.04 210.36 126.5 205.12C128.25 198.86 128.89 192.42 128.87 185.92C128.87 184.76 128.48 184.27 127.35 184.01C121.99 182.8 116.62 181.59 111.26 180.39C109.18 179.93 107.94 178.64 107.91 176.89C107.86 174.61 109.88 172.94 112.28 173.31C117.1 174.05 121.91 174.83 126.74 175.55C130.1 176.06 133.46 176.3 136.81 176.31C140.63 176.32 144.45 176.02 148.27 175.42C152.78 174.71 157.29 173.99 161.8 173.3C163.88 172.98 165.7 174.22 166.09 176.16C166.45 178.02 165.23 179.81 163.15 180.29Z" fill="#FFB400"/>
</svg>
