<svg width="504" height="960" viewBox="0 0 504 960" fill="none" xmlns="http://www.w3.org/2000/svg">
<path d="M477.715 764.19H383.617C381.532 764.19 379.844 765.878 379.844 767.963V835.253C379.844 837.338 381.532 839.026 383.617 839.026H477.715C479.799 839.026 481.488 837.338 481.488 835.253V767.963C481.467 765.878 479.778 764.19 477.715 764.19Z" fill="white"/>
<path d="M311.657 632.403C313.137 634.529 316.056 635.05 318.182 633.57L334.046 622.501C336.172 621.021 336.693 618.103 335.213 615.977C333.733 613.85 330.815 613.329 328.688 614.809L312.825 625.878C310.677 627.358 310.177 630.277 311.657 632.403Z" fill="#4C4540"/>
<path d="M374.507 610.411C375.195 612.912 373.715 615.476 371.234 616.164L352.577 621.271C350.076 621.959 347.512 620.479 346.824 617.999C346.136 615.497 347.616 612.933 350.097 612.245L368.754 607.138C371.255 606.45 373.819 607.909 374.507 610.411Z" fill="#4C4540"/>
<path d="M350.555 648.1H331.877C330.064 648.1 328.604 646.641 328.604 644.827V616.039C328.604 614.226 330.064 612.766 331.877 612.766H350.555C352.369 612.766 353.828 614.226 353.828 616.039V644.827C353.828 646.62 352.369 648.1 350.555 648.1Z" fill="#E34D32"/>
<path d="M342.53 608.785L341.029 609.014C336.964 609.66 333.128 606.867 332.482 602.802L331.753 598.237C331.106 594.172 333.9 590.336 337.965 589.69L339.466 589.461C343.53 588.815 347.366 591.608 348.012 595.673L348.742 600.238C349.388 604.303 346.595 608.139 342.53 608.785Z" fill="#4C4540"/>
<path d="M335.38 602.885L338.257 616.748C338.403 617.436 339.07 617.874 339.758 617.728L344.135 616.81C344.823 616.664 345.261 615.997 345.115 615.309L342.238 601.447C342.092 600.759 341.425 600.321 340.737 600.467L336.36 601.385C335.672 601.53 335.234 602.198 335.38 602.885Z" fill="#4C4540"/>
<path d="M334.963 612.766C334.88 613.162 334.817 613.579 334.817 614.017C334.817 617.248 337.444 619.875 340.675 619.875C343.906 619.875 346.532 617.248 346.532 614.017C346.532 613.579 346.47 613.183 346.387 612.766H334.963Z" fill="#4C4540"/>
<path d="M368.629 614.976C366.357 613.746 365.523 610.89 366.774 608.618L376.926 590.024C378.156 587.751 381.011 586.918 383.284 588.168C385.556 589.398 386.39 592.254 385.139 594.526L374.987 613.121C373.736 615.372 370.901 616.206 368.629 614.976Z" fill="#4C4540"/>
<path d="M428.039 959.89H208.533C202.926 959.89 198.319 955.304 198.319 949.676V644.118C198.319 638.511 202.905 633.904 208.533 633.904H428.039C433.646 633.904 438.253 638.49 438.253 644.118V949.676C438.253 955.283 433.646 959.89 428.039 959.89Z" fill="#3E3E3E"/>
<path d="M438.545 665.193V643.66C438.545 638.052 433.959 633.445 428.331 633.445H208.825C203.217 633.445 198.611 638.031 198.611 643.66V665.193H438.545Z" fill="#6B6B6B"/>
<path d="M230.775 653.874C232.894 653.874 234.611 652.157 234.611 650.039C234.611 647.92 232.894 646.203 230.775 646.203C228.657 646.203 226.94 647.92 226.94 650.039C226.94 652.157 228.657 653.874 230.775 653.874Z" fill="#E34D32"/>
<path d="M216.079 653.874C218.197 653.874 219.915 652.157 219.915 650.039C219.915 647.92 218.197 646.203 216.079 646.203C213.961 646.203 212.243 647.92 212.243 650.039C212.243 652.157 213.961 653.874 216.079 653.874Z" fill="#AFBE49"/>
<path d="M245.451 653.874C247.569 653.874 249.286 652.157 249.286 650.039C249.286 647.92 247.569 646.203 245.451 646.203C243.332 646.203 241.615 647.92 241.615 650.039C241.615 652.157 243.332 653.874 245.451 653.874Z" fill="#F9C885"/>
<path d="M312.866 765.024V835.086C312.866 837.254 311.115 839.005 308.947 839.005H210.972C208.804 839.005 207.053 837.254 207.053 835.086V765.024C207.053 762.856 208.804 761.105 210.972 761.105H308.947C311.115 761.105 312.866 762.856 312.866 765.024Z" fill="white"/>
<path d="M423.849 761.105H325.874C323.706 761.105 321.955 762.856 321.955 765.024V835.086C321.955 837.254 323.706 839.005 325.874 839.005H423.849C426.017 839.005 427.768 837.254 427.768 835.086V765.024C427.768 762.856 426.017 761.105 423.849 761.105Z" fill="#CCCCCC"/>
<path d="M221 783.5C221 790.968 227.032 797 234.5 797C241.968 797 248 790.968 248 783.5C248 776.032 241.968 770 234.5 770C227.032 770 221 776.032 221 783.5Z" fill="#A7A9AC"/>
<path d="M312.324 836.963C311.657 838.172 310.427 839.005 308.947 839.005H241.26L274.53 797.356C274.635 797.231 274.78 797.168 274.885 797.064C274.989 796.96 275.031 796.834 275.156 796.751C275.239 796.689 275.364 796.668 275.448 796.605C275.677 796.459 275.906 796.334 276.156 796.23C276.386 796.126 276.615 796.063 276.865 796.001C277.094 795.959 277.345 795.938 277.574 795.938C277.845 795.938 278.095 795.959 278.345 796.001C278.574 796.042 278.783 796.126 279.012 796.209C279.283 796.313 279.512 796.438 279.763 796.584C279.846 796.647 279.95 796.668 280.055 796.73C280.159 796.814 280.221 796.939 280.325 797.043C280.43 797.147 280.576 797.21 280.68 797.335L312.324 836.963Z" fill="#AFBE49"/>
<path d="M252.705 808.591C252.788 808.654 252.809 808.758 252.872 808.821C252.955 808.904 253.059 808.946 253.122 809.029L259.375 816.325L241.24 839.026H221.457L247.181 809.029C247.243 808.946 247.347 808.925 247.431 808.842C247.514 808.758 247.535 808.675 247.618 808.591C247.744 808.487 247.889 808.445 248.035 808.362C248.265 808.216 248.494 808.07 248.744 807.966C248.973 807.862 249.203 807.82 249.432 807.778C249.682 807.737 249.932 807.695 250.182 807.695C250.433 807.695 250.683 807.737 250.912 807.778C251.162 807.82 251.371 807.883 251.6 807.966C251.85 808.07 252.079 808.216 252.33 808.362C252.434 808.445 252.601 808.487 252.705 808.591Z" fill="#9BA941"/>
<path d="M382.991 703.487H249.995C247.056 703.487 244.679 701.111 244.679 698.171C244.679 695.232 247.056 692.856 249.995 692.856H382.991C385.93 692.856 388.307 695.232 388.307 698.171C388.328 701.09 385.951 703.487 382.991 703.487Z" fill="white"/>
<path d="M346.824 729.127H282.994C280.055 729.127 277.678 726.751 277.678 723.812C277.678 720.872 280.055 718.496 282.994 718.496H346.824C349.763 718.496 352.14 720.872 352.14 723.812C352.14 726.751 349.763 729.127 346.824 729.127Z" fill="white"/>
<path d="M288.956 860.164H213.286C211.618 860.164 210.263 858.809 210.263 857.141C210.263 855.474 211.618 854.119 213.286 854.119H288.956C290.624 854.119 291.979 855.474 291.979 857.141C291.979 858.809 290.624 860.164 288.956 860.164Z" fill="#F9C885"/>
<path d="M249.599 873.443H213.265C211.597 873.443 210.242 872.088 210.242 870.42C210.242 868.752 211.597 867.397 213.265 867.397H249.599C251.267 867.397 252.622 868.752 252.622 870.42C252.622 872.088 251.267 873.443 249.599 873.443Z" fill="#F9C885"/>
<path d="M402.628 860.164H326.958C325.29 860.164 323.935 858.809 323.935 857.141C323.935 855.474 325.29 854.119 326.958 854.119H402.628C404.295 854.119 405.65 855.474 405.65 857.141C405.65 858.809 404.295 860.164 402.628 860.164Z" fill="white"/>
<path d="M363.292 873.443H326.958C325.29 873.443 323.935 872.088 323.935 870.42C323.935 868.752 325.29 867.397 326.958 867.397H363.292C364.96 867.397 366.315 868.752 366.315 870.42C366.315 872.088 364.96 873.443 363.292 873.443Z" fill="white"/>
<path d="M359.476 946.47C361.81 947.658 364.791 946.532 366.125 943.927L372.942 931.107L364.333 927L357.641 939.591C356.307 942.197 357.12 945.282 359.476 946.47Z" fill="#DDC39C"/>
<path d="M388.856 876.575C388.207 879.377 390.205 882.205 393.318 882.932L412.44 887.42C415.553 888.147 418.589 886.46 419.211 883.658C419.86 880.856 417.862 878.028 414.749 877.302L395.627 872.813C392.54 872.087 389.504 873.773 388.856 876.575Z" fill="#DDC39C"/>
<path d="M376.558 857.947C374.404 859.867 374.404 863.317 376.506 865.704L389.504 880.441C391.632 882.828 395.083 883.191 397.21 881.297C399.364 879.377 399.364 875.927 397.262 873.54L384.264 858.803C382.162 856.416 378.711 856.053 376.558 857.947Z" fill="#DDC39C"/>
<path d="M375.753 954.411C379.022 954.644 381.877 951.894 382.136 948.262L383.745 930.282L371.888 929.737L370.305 947.405C370.072 951.038 372.51 954.177 375.753 954.411Z" fill="#DDC39C"/>
<path d="M385.301 913.495C385.587 909.344 382.81 905.764 379.074 905.478C375.338 905.219 372.043 908.358 371.758 912.509L370.097 931.034L383.693 931.657L385.301 913.495Z" fill="#276F7B"/>
<path d="M415.695 865.489L413.965 880.411L420.021 881.113L421.751 866.191L415.695 865.489Z" fill="#DDC39C"/>
<path d="M416.669 874.578L418.433 874.785C423.181 875.33 427.488 871.931 428.033 867.183L428.656 861.865C429.2 857.117 425.802 852.81 421.054 852.265L419.289 852.057C414.541 851.512 410.235 854.911 409.69 859.659L409.067 864.978C408.522 869.752 411.921 874.033 416.669 874.578Z" fill="#DDC39C"/>
<path d="M420.716 878.21L412.102 877.535C409.119 877.302 404.163 883.269 403.93 886.253L403.437 905.063L424.193 903.325L425.698 884.048C425.931 881.064 423.7 878.443 420.716 878.21Z" fill="#B297C7"/>
<path d="M403.93 912.302C403.696 915.286 405.927 917.906 408.911 918.139L417.525 918.814C420.508 919.048 423.129 916.816 423.362 913.833L424.193 903.325H404.63L403.93 912.302Z" fill="#296671"/>
<path d="M372.173 910.252C371.758 913.703 374.534 916.868 378.348 917.335L414.075 922.239C417.914 922.706 421.339 920.267 421.754 916.816C422.169 913.366 419.393 910.2 415.579 909.733L379.853 904.83C376.013 904.363 372.588 906.801 372.173 910.252Z" fill="#276F7B"/>
<path d="M382.214 924.729H378.945V946.523H382.214V924.729Z" fill="#D1D3D4"/>
<path d="M389.478 905.945H386.209V932.617H389.478V905.945Z" fill="#D1D3D4"/>
<path d="M379.567 933.784H426.061V918.347H382.94C380.32 918.347 378.218 920.474 378.218 923.069V932.435C378.218 933.162 378.815 933.784 379.567 933.784Z" fill="#E34D32"/>
<path d="M378.218 932.435C378.218 933.187 378.815 933.784 379.567 933.784H426.061V926.39H378.218V932.435Z" fill="#B37E2C"/>
<path d="M382.94 918.347C380.32 918.347 378.218 920.474 378.218 923.069V926.39H426.061V918.347H382.94Z" fill="#F5AA3E"/>
<path d="M383.615 906.568H427.125V900.082H385.898C384.289 900.082 383.018 901.379 383.018 902.962V905.945C383.018 906.308 383.277 906.568 383.615 906.568Z" fill="#F5AA3E"/>
<path d="M426.061 921.408V890.404C426.061 886.149 429.512 882.698 433.767 882.698H439.838" stroke="#D1D3D4" stroke-width="1.1819" stroke-miterlimit="10" stroke-linecap="round"/>
<path d="M426.061 951.271C436.063 951.271 444.171 943.163 444.171 933.162C444.171 923.16 436.063 915.052 426.061 915.052C416.059 915.052 407.951 923.16 407.951 933.162C407.951 943.163 416.059 951.271 426.061 951.271Z" fill="#717171"/>
<path d="M426.061 907.476C411.869 907.476 400.375 918.97 400.375 933.162C400.375 947.354 411.869 958.847 426.061 958.847C440.253 958.847 451.746 947.354 451.746 933.162C451.772 918.97 440.253 907.476 426.061 907.476ZM426.061 952.439C415.423 952.439 406.784 943.799 406.784 933.162C406.784 922.524 415.423 913.884 426.061 913.884C436.698 913.884 445.338 922.524 445.338 933.162C445.338 943.799 436.724 952.439 426.061 952.439Z" fill="#282929"/>
<path d="M426.061 913.884C415.423 913.884 406.784 922.524 406.784 933.162C406.784 943.799 415.423 952.439 426.061 952.439C436.698 952.439 445.338 943.799 445.338 933.162C445.338 922.524 436.724 913.884 426.061 913.884ZM426.061 946.653C418.615 946.653 412.569 940.608 412.569 933.162C412.569 925.715 418.615 919.67 426.061 919.67C433.507 919.67 439.552 925.715 439.552 933.162C439.578 940.608 433.533 946.653 426.061 946.653Z" fill="#575857"/>
<path d="M381.124 958.484C386.34 958.484 390.568 954.256 390.568 949.04C390.568 943.824 386.34 939.596 381.124 939.596C375.908 939.596 371.68 943.824 371.68 949.04C371.68 954.256 375.908 958.484 381.124 958.484Z" fill="#2C2D2D"/>
<path d="M381.124 954.826C384.32 954.826 386.91 952.235 386.91 949.04C386.91 945.845 384.32 943.254 381.124 943.254C377.929 943.254 375.339 945.845 375.339 949.04C375.339 952.235 377.929 954.826 381.124 954.826Z" fill="#575857"/>
<path d="M429.589 920.371C432.314 921.305 435.349 919.592 436.361 916.583L442.769 898.032C443.807 895.022 442.432 891.831 439.708 890.897C436.984 889.963 433.948 891.675 432.936 894.685L426.528 913.236C425.49 916.245 426.865 919.437 429.589 920.371Z" fill="#DDC39C"/>
<path d="M416.825 879.767C415.164 882.102 415.943 885.501 418.563 887.343L434.571 898.707C437.166 900.549 440.616 900.108 442.277 897.773C443.937 895.438 443.159 892.039 440.538 890.197L424.53 878.833C421.91 877.017 418.485 877.432 416.825 879.767Z" fill="#DDC39C"/>
<path d="M383.283 916.63C385.177 912.92 384.009 908.535 380.663 906.823C377.316 905.111 373.087 906.745 371.193 910.455L362.449 926.878L374.721 932.742L383.283 916.63Z" fill="#296671"/>
<path d="M449.697 863.441C447.436 864.571 444.718 863.656 443.588 861.422L435.111 844.603C433.981 842.342 434.896 839.624 437.129 838.494C439.39 837.364 442.108 838.279 443.238 840.512L451.715 857.332C452.846 859.592 451.957 862.31 449.697 863.441Z" fill="#9E7F64"/>
<path d="M463.314 840.432C465.278 841.993 465.628 844.872 464.067 846.837L452.388 861.611C450.827 863.575 447.947 863.925 445.983 862.364C444.018 860.803 443.668 857.924 445.229 855.959L456.909 841.185C458.47 839.194 461.349 838.871 463.314 840.432Z" fill="#9E7F64"/>
<path d="M488.031 963.942C490.615 963.416 492.372 959.84 491.933 955.948L485.421 896.166C484.982 892.274 482.553 889.539 479.969 890.065C477.385 890.591 475.628 894.167 476.067 898.059L482.579 957.841C483.018 961.733 485.447 964.433 488.031 963.942Z" fill="#9E7F64"/>
<path d="M462.5 964C464.983 964 467 961.263 467 957.895V896.105C467 892.737 464.983 890 462.5 890C460.017 890 458 892.737 458 896.105V957.895C458 961.263 460.017 964 462.5 964Z" fill="#9E7F64"/>
<path d="M502.685 832.251C501.474 829.99 498.648 829.129 496.361 830.367L479.407 839.517C477.146 840.728 476.285 843.554 477.523 845.841C478.734 848.102 481.56 848.963 483.847 847.725L500.801 838.575C503.061 837.337 503.896 834.512 502.685 832.251Z" fill="#9E7F64"/>
<path d="M494.154 808.65C491.624 809.08 489.929 811.502 490.359 814.032L493.992 834.808C494.423 837.337 496.845 839.033 499.374 838.602C501.904 838.171 503.599 835.749 503.169 833.22L499.536 812.444C499.105 809.915 496.683 808.192 494.154 808.65Z" fill="#9E7F64"/>
<path d="M473.486 822.051H467.916V835.749H473.486V822.051Z" fill="#9E7F64"/>
<path d="M464.04 841.589H477.227C477.98 841.589 478.599 840.97 478.599 840.216V834.457C478.599 833.704 477.98 833.085 477.227 833.085H464.04C463.287 833.085 462.668 833.704 462.668 834.457V840.216C462.668 840.997 463.287 841.589 464.04 841.589Z" fill="#1D5F69"/>
<path d="M469.826 830.286H471.441C475.801 830.286 479.326 826.761 479.326 822.401V817.53C479.326 813.171 475.801 809.645 471.441 809.645H469.826C465.467 809.645 461.941 813.171 461.941 817.53V822.401C461.941 826.761 465.467 830.286 469.826 830.286Z" fill="#9E7F64"/>
<path d="M453.438 896.891H488.395C490.656 896.891 492.324 895.115 491.786 893.285L479.784 852.353C479.407 851.061 478.007 850.12 476.393 850.12H465.413C463.798 850.12 462.399 851.035 462.022 852.353L450.02 893.285C449.509 895.115 451.177 896.891 453.438 896.891Z" fill="#9BBDC8"/>
<path d="M461.995 857.359H479.434C482.232 857.359 484.493 855.098 484.493 852.299V843.15C484.493 840.351 482.232 838.09 479.434 838.09H461.995C459.197 838.09 456.936 840.351 456.936 843.15V852.299C456.936 855.098 459.197 857.359 461.995 857.359Z" fill="#9BBDC8"/>
<path d="M428.31 835.17V766.483C428.31 765.628 428.018 764.836 427.539 764.19H399.793C397.709 764.19 396.02 765.878 396.02 767.963V835.253C396.02 837.338 397.709 839.026 399.793 839.026H424.454C426.601 839.005 428.31 837.296 428.31 835.17Z" fill="white"/>
<path d="M387.286 821.641H361.666C352.098 821.641 344.323 813.886 344.323 804.297V798.231C344.323 788.663 352.077 780.887 361.666 780.887H387.286C396.854 780.887 404.629 788.642 404.629 798.231V804.297C404.629 813.886 396.875 821.641 387.286 821.641Z" fill="#317C8A"/>
<path d="M384.972 799.211L372.985 792.019C372.235 791.581 371.318 791.561 370.567 791.998C369.817 792.436 369.358 793.228 369.358 794.083V808.467C369.358 809.321 369.817 810.134 370.567 810.551C370.942 810.76 371.339 810.864 371.755 810.864C372.172 810.864 372.61 810.739 372.985 810.53L384.972 803.338C385.701 802.901 386.139 802.129 386.139 801.275C386.139 800.42 385.701 799.649 384.972 799.211Z" fill="#3893A3"/>
<path d="M340.549 635.363C341.154 632.841 339.611 630.318 337.089 629.714L316.493 624.773C313.971 624.169 311.449 625.712 310.844 628.234C310.24 630.756 311.782 633.279 314.305 633.883L334.9 638.823C337.423 639.428 339.945 637.865 340.549 635.363Z" fill="#4C4540"/>
<path d="M160.5 969C163.535 969 166 965.749 166 961.746V901.254C166 897.25 163.535 894 160.5 894C157.465 894 155 897.25 155 901.254V961.746C155 965.749 157.465 969 160.5 969Z" fill="white"/>
<path d="M130.881 965.94C133.945 966.45 136.745 963.662 137.115 959.718L142.953 900.084C143.349 896.14 141.183 892.536 138.119 892.06C135.055 891.55 132.255 894.338 131.885 898.282L126.047 957.916C125.651 961.826 127.817 965.43 130.881 965.94Z" fill="white"/>
<path d="M80.1545 969.014C76.182 969.606 72.4631 966.873 71.8714 962.9L62.6586 902.383C62.067 898.411 64.7999 894.692 68.7724 894.1C72.7449 893.508 76.4638 896.241 77.0555 900.214L86.2682 960.731C86.8599 964.703 84.127 968.422 80.1545 969.014Z" fill="#1F4F58"/>
<path d="M6.64871 963.042C3.07065 961.21 1.66197 956.815 3.49326 953.237L31.4698 898.806C33.3011 895.227 37.6962 893.819 41.2743 895.65C44.8523 897.481 46.261 901.876 44.4297 905.455L16.4532 959.886C14.6219 963.464 10.2268 964.873 6.64871 963.042Z" fill="#1F4F58"/>
<path d="M73.5896 907.737C70.096 909.737 65.6446 908.498 63.6725 905.004L33.4138 851.812C31.4135 848.318 32.6531 843.867 36.1467 841.895C39.6402 839.894 44.0917 841.134 46.0639 844.628L76.3224 897.82C78.3228 901.313 77.1113 905.765 73.5896 907.737Z" fill="#1F4F58"/>
<path d="M37.2174 909.54C33.2167 909.117 30.343 905.511 30.7656 901.51L37.4146 840.683C37.8372 836.682 41.4435 833.809 45.4442 834.231C49.4448 834.654 52.3185 838.26 51.8959 842.261L45.2469 903.088C44.8243 907.088 41.2181 909.962 37.2174 909.54Z" fill="#1F4F58"/>
<path d="M54.9382 830.907C57.3048 829.667 60.2348 830.569 61.5026 832.935L70.8845 850.656C72.1242 853.023 71.2226 855.953 68.856 857.221C66.4894 858.461 63.5593 857.559 62.2915 855.192L52.9097 837.471C51.67 835.076 52.5716 832.146 54.9382 830.907Z" fill="#BF4028"/>
<path d="M62.7429 853.079C62.4893 850.403 64.4616 848.036 67.1099 847.783L87.0569 845.895C89.7334 845.642 92.1 847.614 92.3535 850.262C92.6071 852.939 90.6349 855.305 87.9866 855.559L68.0396 857.446C65.3631 857.7 62.9965 855.728 62.7429 853.079Z" fill="#BF4028"/>
<path d="M51.4728 811.439V826.962C51.4728 827.723 50.853 828.343 50.0923 828.343H45.1901C44.4294 828.343 43.8096 827.723 43.8096 826.962V811.439C43.8096 810.678 44.4294 810.058 45.1901 810.058H50.0923C50.8249 810.058 51.4728 810.678 51.4728 811.439Z" fill="#F9C885"/>
<path d="M55.3894 831.752H39.8656C39.1049 831.752 38.4851 831.132 38.4851 830.371V825.469C38.4851 824.708 39.1049 824.089 39.8656 824.089H55.3894C56.15 824.089 56.7698 824.708 56.7698 825.469V830.371C56.7698 831.132 56.15 831.752 55.3894 831.752Z" fill="#BF4028"/>
<path d="M48.7403 820.736H47.1063C42.7393 820.736 39.1895 817.186 39.1895 812.819V807.917C39.1895 803.55 42.7393 800 47.1063 800H48.7403C53.1072 800 56.6571 803.55 56.6571 807.917V812.819C56.6571 817.186 53.1072 820.736 48.7403 820.736Z" fill="#F9C885"/>
<path d="M59.0798 869.251H36.6817C33.4135 869.251 30.7371 866.603 30.7371 863.306V839.528C30.7371 833.442 35.6674 828.484 41.7811 828.484H53.9804C60.0659 828.484 65.0245 833.414 65.0245 839.528V863.306C65.0245 866.603 62.3762 869.251 59.0798 869.251Z" fill="#E34D32"/>
<path d="M47.6132 879.844C59.2771 879.844 68.7435 875.956 68.7435 866.039C68.7435 865.983 68.7435 865.927 68.7435 865.87H26.4829C26.4829 865.927 26.4829 865.983 26.4829 866.039C26.4829 875.928 35.9493 879.844 47.6132 879.844Z" fill="#1F4F58"/>
<path d="M47.5005 828.85C35.8929 828.85 26.5956 856.009 26.4829 865.842H68.7435C68.6308 856.009 59.1081 828.85 47.5005 828.85Z" fill="#E34D32"/>
<path d="M111.85 850.375H4.31058C1.94398 850.375 0 848.459 0 846.064C0 843.698 1.91581 841.754 4.31058 841.754H111.85C114.216 841.754 116.16 843.67 116.16 846.064C116.132 848.459 114.216 850.375 111.85 850.375Z" fill="white"/>
<path d="M55.9249 866.349H4.31058C1.94398 866.349 0 864.433 0 862.039C0 859.644 1.91581 857.728 4.31058 857.728H55.9249C58.2915 857.728 60.2355 859.644 60.2355 862.039C60.2355 864.433 58.3197 866.349 55.9249 866.349Z" fill="white"/>
<path d="M15.6646 851.445C17.3268 853.558 20.3695 853.897 22.4826 852.234L38.2035 839.781C40.3166 838.119 40.6547 835.076 38.9924 832.963C37.3302 830.85 34.2874 830.512 32.1743 832.175L16.4534 844.627C14.3404 846.29 14.0023 849.332 15.6646 851.445Z" fill="#BF4028"/>
<path d="M31.4131 870.773C33.6952 869.392 34.4277 866.406 33.0472 864.124L22.6229 846.994C21.2424 844.712 18.256 843.98 15.9739 845.36C13.6918 846.741 12.9593 849.727 14.3398 852.009L24.7641 869.139C26.1446 871.421 29.1311 872.153 31.4131 870.773Z" fill="#BF4028"/>
<path d="M121.453 867.668C123.565 870.181 127.309 870.502 129.822 868.39L143.351 857.026C145.864 854.914 146.185 851.171 144.073 848.657C141.961 846.144 138.217 845.823 135.704 847.935L122.175 859.299C119.688 861.411 119.341 865.154 121.453 867.668Z" fill="#7E8836"/>
<path d="M117.87 888.443C120.971 889.512 124.34 887.881 125.41 884.78L131.185 868.095C132.255 864.994 130.624 861.625 127.522 860.556C124.421 859.486 121.052 861.117 119.982 864.219L114.207 880.903C113.137 883.978 114.768 887.373 117.87 888.443Z" fill="#7E8836"/>
<path d="M144.607 825.208V843.149C144.607 844.032 145.329 844.754 146.211 844.754H151.88C152.762 844.754 153.484 844.032 153.484 843.149V825.208C153.484 824.326 152.762 823.604 151.88 823.604H146.211C145.329 823.604 144.607 824.326 144.607 825.208Z" fill="#75695F"/>
<path d="M140.089 848.684H158.03C158.912 848.684 159.634 847.962 159.634 847.08V841.411C159.634 840.529 158.912 839.807 158.03 839.807H140.089C139.207 839.807 138.485 840.529 138.485 841.411V847.08C138.458 847.962 139.18 848.684 140.089 848.684Z" fill="#7E8836"/>
<path d="M147.789 835.957H149.661C154.714 835.957 158.805 831.866 158.805 826.813V821.144C158.805 816.091 154.714 812 149.661 812H147.789C142.736 812 138.645 816.091 138.645 821.144V826.813C138.618 831.839 142.709 835.957 147.789 835.957Z" fill="#75695F"/>
<path d="M138.565 892.026H159.554C163.056 892.026 165.89 889.191 165.89 885.689V856.679C165.89 850.181 160.623 844.914 154.126 844.914H143.992C137.495 844.914 132.228 850.181 132.228 856.679V885.689C132.228 889.191 135.062 892.026 138.565 892.026Z" fill="#9AA63E"/>
<path d="M165.81 881.25H132.388V898.443H165.81V881.25Z" fill="white"/>
<path d="M180.436 838.31C178.431 835.262 174.34 834.433 171.292 836.438L153.084 848.443C150.036 850.449 149.207 854.54 151.212 857.588C153.218 860.636 157.308 861.465 160.356 859.459L178.565 847.454C181.586 845.422 182.442 841.358 180.436 838.31Z" fill="#7E8836"/>
<path d="M174.206 821.385C175.169 817.882 178.805 815.823 182.308 816.786C185.811 817.749 187.869 821.385 186.907 824.888L185.463 830.128L172.682 826.839L174.206 821.385Z" fill="#75695F"/>
<path d="M173.591 848.39C170.089 847.427 168.03 843.791 168.992 840.288L172.709 826.839L185.489 830.128L181.719 843.818C180.73 847.294 177.094 849.352 173.591 848.39Z" fill="#7E8836"/>
<path d="M181.354 814.709C188.73 814.709 194.709 808.73 194.709 801.354C194.709 793.979 188.73 788 181.354 788C173.979 788 168 793.979 168 801.354C168 808.73 173.979 814.709 181.354 814.709Z" fill="#F5AA3E"/>
<path d="M393.122 826.477H362.771C351.431 826.477 342.238 817.284 342.238 805.944V798.752C342.238 787.412 351.431 778.219 362.771 778.219H393.122C404.462 778.219 413.655 787.412 413.655 798.752V805.944C413.655 817.284 404.462 826.477 393.122 826.477Z" fill="#E34D32"/>
<path d="M387.369 800.357L375.737 793.395C375.007 792.957 374.131 792.957 373.402 793.374C372.672 793.791 372.214 794.562 372.214 795.396V809.342C372.214 810.176 372.672 810.947 373.402 811.364C373.756 811.572 374.152 811.656 374.548 811.656C374.965 811.656 375.382 811.551 375.737 811.322L387.369 804.36C388.077 803.943 388.494 803.192 388.494 802.358C388.494 801.525 388.077 800.774 387.369 800.357Z" fill="white"/>
<path d="M362.771 778.24L380.365 735.777" stroke="#F5AA3E" stroke-miterlimit="10" stroke-linecap="round"/>
<path d="M380.365 735.757L394.602 778.261" stroke="#F5AA3E" stroke-miterlimit="10" stroke-linecap="round"/>
<path d="M380 735.756V-1" stroke="#F5AA3E" stroke-miterlimit="10" stroke-linecap="round"/>
<path d="M361.624 778.219L359.936 826.477" stroke="#F5AA3E" stroke-miterlimit="10" stroke-linecap="round"/>
<path d="M395.686 777.99L396.916 826.686" stroke="#F5AA3E" stroke-miterlimit="10" stroke-linecap="round"/>
</svg>
